<?xml version="1.0" encoding="UTF-8"?>
<!DOCTYPE svg PUBLIC "-//W3C//DTD SVG 1.1//EN" "http://www.w3.org/Graphics/SVG/1.1/DTD/svg11.dtd">
<svg xmlns="http://www.w3.org/2000/svg" xmlns:xlink="http://www.w3.org/1999/xlink" version="1.1" width="181px" height="161px" viewBox="-0.5 -0.5 181 161"><defs/><g><path d="M 0 120 L 100 120 L 120 140 L 120 160 L 20 160 L 0 140 L 0 120 Z" fill="#67ab9f" stroke="#ffffff" stroke-miterlimit="10" pointer-events="all"/><path d="M 0 120 L 100 120 L 120 140 L 20 140 Z" fill-opacity="0.05" fill="#000000" stroke="none" pointer-events="all"/><path d="M 0 120 L 20 140 L 20 160 L 0 140 Z" fill-opacity="0.1" fill="#000000" stroke="none" pointer-events="all"/><path d="M 20 160 L 20 140 L 0 120 M 20 140 L 120 140" fill="none" stroke="#ffffff" stroke-miterlimit="10" pointer-events="all"/><path d="M 20 100 L 120 100 L 140 120 L 140 140 L 40 140 L 20 120 L 20 100 Z" fill="#67ab9f" stroke="#ffffff" stroke-miterlimit="10" pointer-events="all"/><path d="M 20 100 L 120 100 L 140 120 L 40 120 Z" fill-opacity="0.05" fill="#000000" stroke="none" pointer-events="all"/><path d="M 20 100 L 40 120 L 40 140 L 20 120 Z" fill-opacity="0.1" fill="#000000" stroke="none" pointer-events="all"/><path d="M 40 140 L 40 120 L 20 100 M 40 120 L 140 120" fill="none" stroke="#ffffff" stroke-miterlimit="10" pointer-events="all"/><path d="M 40 80 L 140 80 L 160 100 L 160 120 L 60 120 L 40 100 L 40 80 Z" fill="#67ab9f" stroke="#ffffff" stroke-miterlimit="10" pointer-events="all"/><path d="M 40 80 L 140 80 L 160 100 L 60 100 Z" fill-opacity="0.05" fill="#000000" stroke="none" pointer-events="all"/><path d="M 40 80 L 60 100 L 60 120 L 40 100 Z" fill-opacity="0.1" fill="#000000" stroke="none" pointer-events="all"/><path d="M 60 120 L 60 100 L 40 80 M 60 100 L 160 100" fill="none" stroke="#ffffff" stroke-miterlimit="10" pointer-events="all"/><path d="M 60 60 L 160 60 L 180 80 L 180 100 L 80 100 L 60 80 L 60 60 Z" fill="#67ab9f" stroke="#ffffff" stroke-miterlimit="10" pointer-events="all"/><path d="M 60 60 L 160 60 L 180 80 L 80 80 Z" fill-opacity="0.05" fill="#000000" stroke="none" pointer-events="all"/><path d="M 60 60 L 80 80 L 80 100 L 60 80 Z" fill-opacity="0.1" fill="#000000" stroke="none" pointer-events="all"/><path d="M 80 100 L 80 80 L 60 60 M 80 80 L 180 80" fill="none" stroke="#ffffff" stroke-miterlimit="10" pointer-events="all"/><path d="M 40 40 L 140 40 L 160 60 L 160 80 L 60 80 L 40 60 L 40 40 Z" fill="#67ab9f" stroke="#ffffff" stroke-miterlimit="10" pointer-events="all"/><path d="M 40 40 L 140 40 L 160 60 L 60 60 Z" fill-opacity="0.05" fill="#000000" stroke="none" pointer-events="all"/><path d="M 40 40 L 60 60 L 60 80 L 40 60 Z" fill-opacity="0.1" fill="#000000" stroke="none" pointer-events="all"/><path d="M 60 80 L 60 60 L 40 40 M 60 60 L 160 60" fill="none" stroke="#ffffff" stroke-miterlimit="10" pointer-events="all"/><path d="M 20 20 L 120 20 L 140 40 L 140 60 L 40 60 L 20 40 L 20 20 Z" fill="#67ab9f" stroke="#ffffff" stroke-miterlimit="10" pointer-events="all"/><path d="M 20 20 L 120 20 L 140 40 L 40 40 Z" fill-opacity="0.05" fill="#000000" stroke="none" pointer-events="all"/><path d="M 20 20 L 40 40 L 40 60 L 20 40 Z" fill-opacity="0.1" fill="#000000" stroke="none" pointer-events="all"/><path d="M 40 60 L 40 40 L 20 20 M 40 40 L 140 40" fill="none" stroke="#ffffff" stroke-miterlimit="10" pointer-events="all"/><path d="M 0 0 L 100 0 L 120 20 L 120 40 L 20 40 L 0 20 L 0 0 Z" fill="#67ab9f" stroke="#ffffff" stroke-miterlimit="10" pointer-events="all"/><path d="M 0 0 L 100 0 L 120 20 L 20 20 Z" fill-opacity="0.05" fill="#000000" stroke="none" pointer-events="all"/><path d="M 0 0 L 20 20 L 20 40 L 0 20 Z" fill-opacity="0.1" fill="#000000" stroke="none" pointer-events="all"/><path d="M 20 40 L 20 20 L 0 0 M 20 20 L 120 20" fill="none" stroke="#ffffff" stroke-miterlimit="10" pointer-events="all"/></g></svg>